<svg width="20" height="20" viewBox="0 0 20 20" fill="none" xmlns="http://www.w3.org/2000/svg">
<g clip-path="url(#clip0_28697_37850)">
<path d="M20 10C20 15.5225 15.5225 20 10 20C4.47746 20 0 15.5225 0 10C0 4.47746 4.47746 0 10 0C15.5237 0 20 4.47746 20 10Z" fill="#5762E3"/>
<path d="M13.9839 6.25599C13.2372 5.902 12.4441 5.644 11.6164 5.5C11.5122 5.686 11.3964 5.938 11.3153 6.136C10.4349 6.00399 9.56082 6.00399 8.69252 6.136C8.61148 5.938 8.48991 5.686 8.3915 5.5C7.55796 5.644 6.76492 5.902 6.0234 6.25599C4.52415 8.54798 4.11895 10.786 4.32155 12.9939C5.31719 13.7439 6.2781 14.2 7.22223 14.5C7.45377 14.176 7.66216 13.8279 7.84161 13.462C7.50008 13.33 7.17592 13.1679 6.86334 12.9759C6.94438 12.916 7.02542 12.85 7.10067 12.784C8.98776 13.678 11.0317 13.678 12.8956 12.784C12.9767 12.85 13.0519 12.916 13.133 12.9759C12.8204 13.1679 12.4962 13.33 12.1547 13.462C12.3341 13.8279 12.5425 14.176 12.7741 14.5C13.7176 14.2 14.6843 13.7439 15.6747 12.9939C15.9236 10.438 15.2805 8.218 13.9839 6.25599ZM8.10209 11.632C7.5348 11.632 7.07172 11.098 7.07172 10.444C7.07172 9.78999 7.52323 9.25597 8.10209 9.25597C8.67516 9.25597 9.14402 9.78999 9.13244 10.444C9.13244 11.098 8.67516 11.632 8.10209 11.632ZM11.9058 11.632C11.3385 11.632 10.8748 11.098 10.8748 10.444C10.8748 9.78999 11.3269 9.25597 11.9058 9.25597C12.4789 9.25597 12.9477 9.78999 12.9362 10.444C12.9362 11.098 12.4847 11.632 11.9058 11.632Z" fill="white"/>
</g>
<defs>
<clipPath id="clip0_28697_37850">
<rect width="20" height="20" fill="white"/>
</clipPath>
</defs>
</svg>
