<svg width="20" height="20" viewBox="0 0 20 20" fill="none" xmlns="http://www.w3.org/2000/svg">
<rect width="20" height="20" rx="10" fill="#25D366"/>
<path d="M10 4C6.68613 4 4 6.68613 4 10C4 11.0901 4.29064 12.1125 4.79908 12.9934L4 16L7.11688 15.263C7.97249 15.7326 8.95503 16 10 16C13.3139 16 16 13.3139 16 10C16 6.68613 13.3139 4 10 4ZM10 14.9252C8.99734 14.9252 8.06439 14.6255 7.28647 14.1109L5.44486 14.5798L5.96127 12.8197C5.40254 12.0209 5.0748 11.0488 5.0748 10C5.0748 7.27988 7.27988 5.0748 10 5.0748C12.7201 5.0748 14.9252 7.27988 14.9252 10C14.9252 12.7201 12.7201 14.9252 10 14.9252Z" fill="white"/>
<path d="M11.4061 10.7929L12.8579 11.4772C12.9244 11.5087 12.9671 11.576 12.9612 11.6495C12.9456 11.8406 12.8689 12.2235 12.5256 12.5665C11.5569 13.5352 9.81727 12.4393 9.74652 12.3969C9.31854 12.167 8.91207 11.8597 8.52675 11.4741C8.14143 11.0887 7.8338 10.6819 7.60386 10.2543C7.56155 10.1835 6.4656 8.44423 7.43427 7.47521C7.77762 7.13186 8.16016 7.05556 8.35126 7.03961C8.42479 7.03371 8.49242 7.07637 8.52363 7.14296L9.20791 8.59475C9.24016 8.66342 9.22594 8.74492 9.17253 8.79868L8.66236 9.30885C8.55207 9.41914 8.51947 9.59082 8.59577 9.72712C8.78201 10.0611 9.03242 10.3826 9.32236 10.6784C9.6182 10.9684 9.9397 11.2188 10.2737 11.405C10.41 11.481 10.5817 11.4487 10.692 11.3384L11.2021 10.8283C11.2559 10.7745 11.3374 10.7603 11.4061 10.7929Z" fill="white"/>
</svg>
