<svg width="20" height="20" viewBox="0 0 20 20" fill="none" xmlns="http://www.w3.org/2000/svg">
<path d="M17.8693 2.23048C17.8693 2.23048 19.6246 1.54575 19.4783 3.20864C19.4295 3.89337 18.9907 6.28986 18.6494 8.88202L17.4793 16.5606C17.4793 16.5606 17.3818 17.6855 16.5042 17.8812C15.6266 18.0768 14.3102 17.1964 14.0664 17.0008C13.8713 16.8541 10.4097 14.6532 9.19079 13.5772C8.84948 13.2838 8.45944 12.6968 9.23954 12.0121L14.3589 7.12132C14.944 6.53442 15.5291 5.16499 13.0913 6.82788L6.26545 11.4742C6.26545 11.4742 5.48535 11.9632 4.02269 11.5231L0.85355 10.5449C0.85355 10.5449 -0.316596 9.81129 1.68238 9.07762C6.558 6.77892 12.5549 4.43132 17.8693 2.23048Z" fill="#24A1DE"/>
</svg>
