<svg width="20" height="20" viewBox="0 0 20 20" fill="none" xmlns="http://www.w3.org/2000/svg">
<rect width="20" height="20" rx="4.5" fill="#06C755"/>
<path d="M16.6666 9.08744C16.6666 6.10077 13.6733 3.66663 9.99328 3.66663C6.3133 3.66663 3.31995 6.10077 3.31995 9.08744C3.31995 11.7641 5.69328 14.0074 8.90662 14.4319C9.12662 14.4797 9.42662 14.5779 9.50329 14.7658C9.57329 14.9364 9.54995 15.2019 9.52662 15.3738C9.52662 15.3738 9.44662 15.8552 9.42995 15.9578C9.40329 16.1284 9.29995 16.6258 9.99328 16.3364C10.6866 16.0468 13.7233 14.1419 15.0799 12.581C16.0199 11.5481 16.6666 10.3999 16.6666 9.08744Z" fill="white"/>
<path d="M14.4466 10.8139H12.5699C12.5 10.8139 12.4433 10.7572 12.4433 10.6872V10.6857V7.77783V7.77566C12.4433 7.70466 12.5 7.64783 12.5699 7.64783H14.4466C14.5166 7.64783 14.5733 7.70583 14.5733 7.77566V8.25049C14.5733 8.32116 14.5166 8.37833 14.4466 8.37833H13.1733V8.87183H14.4466C14.5166 8.87183 14.5733 8.92983 14.5733 8.99966V9.47448C14.5733 9.54516 14.5166 9.60233 14.4466 9.60233H13.1733V10.0958H14.4466C14.5166 10.0958 14.5733 10.1539 14.5733 10.2236V10.6984C14.5733 10.7679 14.5166 10.8252 14.4466 10.8252" fill="#06C755"/>
<path d="M7.50334 10.8139C7.57334 10.8139 7.63001 10.7572 7.63001 10.6872V10.2139C7.63001 10.1439 7.57251 10.0869 7.50334 10.0869H6.23001V7.77583C6.23001 7.70583 6.17251 7.649 6.10251 7.649H5.62251C5.55251 7.649 5.49585 7.70583 5.49585 7.77583V10.685V10.6864C5.49585 10.7564 5.55251 10.8139 5.62251 10.8139H7.50334Z" fill="#06C755"/>
<path d="M8.64667 7.64783H8.16667C8.09696 7.64783 8.04004 7.7042 8.04004 7.77553V10.6871C8.04004 10.7567 8.09633 10.8139 8.16667 10.8139H8.64667C8.71637 10.8139 8.77333 10.7567 8.77333 10.6871V7.77553C8.77333 7.7042 8.71637 7.64783 8.64667 7.64783Z" fill="#06C755"/>
<path d="M11.8967 7.64783H11.4167C11.3467 7.64783 11.29 7.70466 11.29 7.77566V9.50249L9.958 7.70616C9.955 7.70116 9.95133 7.69683 9.94866 7.69166C9.94866 7.69166 9.94504 7.68849 9.94237 7.68733C9.94004 7.68416 9.93833 7.68216 9.93504 7.68049C9.93337 7.67966 9.93137 7.67716 9.928 7.67649C9.928 7.67649 9.9215 7.67183 9.91817 7.67083C9.91549 7.66916 9.91283 7.66733 9.90916 7.66633C9.90483 7.66433 9.90237 7.66299 9.89804 7.66199C9.89504 7.66099 9.89171 7.66016 9.88837 7.65933C9.88437 7.65816 9.88171 7.65733 9.87737 7.65633C9.87337 7.65633 9.87004 7.65499 9.86671 7.65399C9.86271 7.65399 9.85837 7.65283 9.85437 7.65283C9.85104 7.65283 9.84737 7.65283 9.84371 7.65066H9.36379C9.29412 7.65066 9.23712 7.70749 9.23712 7.77849V10.69V10.6914C9.23712 10.7608 9.29412 10.8186 9.36379 10.8186H9.84371C9.91337 10.8186 9.97037 10.7608 9.97037 10.6914V9.10233L11.3047 10.9021C11.314 10.9147 11.3253 10.9245 11.3367 10.9337C11.3367 10.9337 11.3427 10.9395 11.3461 10.9404C11.3494 10.9412 11.3512 10.9437 11.354 10.9445C11.3567 10.9455 11.3593 10.9467 11.3621 10.948C11.365 10.9482 11.3677 10.9494 11.3707 10.9497C11.375 10.9504 11.3793 10.9515 11.3837 10.9521C11.3847 10.9521 11.3867 10.9521 11.3877 10.9521C11.398 10.9549 11.4087 10.9567 11.42 10.9567H11.8967C11.9667 10.9567 12.0234 10.8992 12.0234 10.8297V7.91833V7.77566C12.0234 7.70499 11.9667 7.64816 11.8967 7.64816" fill="#06C755"/>
</svg>
