<svg width="20" height="20" viewBox="0 0 20 20" fill="none" xmlns="http://www.w3.org/2000/svg">
<path d="M16.25 2.25C17.3546 2.25 18.25 3.14543 18.25 4.25V15.75C18.25 16.8546 17.3546 17.75 16.25 17.75H3.75C2.64543 17.75 1.75 16.8546 1.75 15.75V14.4443C1.75006 14.1682 1.97389 13.9443 2.25 13.9443C2.52611 13.9443 2.74994 14.1682 2.75 14.4443V15.75C2.75 16.3023 3.19771 16.75 3.75 16.75H16.25C16.8023 16.75 17.25 16.3023 17.25 15.75V4.25C17.25 3.69772 16.8023 3.25 16.25 3.25H3.75C3.19772 3.25 2.75 3.69772 2.75 4.25V5.55566C2.74994 5.83176 2.52611 6.05566 2.25 6.05566C1.97389 6.05566 1.75006 5.83176 1.75 5.55566V4.25C1.75 3.14543 2.64543 2.25 3.75 2.25H16.25ZM13 13.5H7V12.5H13V13.5ZM2.25 10.6113C2.52614 10.6113 2.75 10.8352 2.75 11.1113V12.2227C2.74977 12.4986 2.526 12.7227 2.25 12.7227C1.974 12.7227 1.75023 12.4986 1.75 12.2227V11.1113C1.75 10.8352 1.97386 10.6113 2.25 10.6113ZM7.5 10H6.5V7.5H7.5V10ZM13.5 10H12.5V7.5H13.5V10ZM2.25 7.27734C2.526 7.27734 2.74977 7.5014 2.75 7.77734V8.88867C2.75 9.16481 2.52614 9.38867 2.25 9.38867C1.97386 9.38867 1.75 9.16481 1.75 8.88867V7.77734C1.75023 7.5014 1.974 7.27734 2.25 7.27734Z" fill="white"/>
</svg>
