<svg width="16" height="16" viewBox="0 0 16 16" fill="none" xmlns="http://www.w3.org/2000/svg">
<path d="M4.75 2.5H3.25C2.55964 2.5 2 3.05964 2 3.75V12.25C2 12.9404 2.55964 13.5 3.25 13.5H4.75C5.44036 13.5 6 12.9404 6 12.25V3.75C6 3.05964 5.44036 2.5 4.75 2.5Z" fill="#404050"/>
<path d="M13.0001 2C13.7733 2 14.4001 2.6268 14.4001 3.4V12.6C14.4001 13.3732 13.7733 14 13.0001 14H3.0001C2.2269 14 1.6001 13.3732 1.6001 12.6V3.4C1.6001 2.6268 2.2269 2 3.0001 2H13.0001ZM3.0001 2.8C2.66873 2.8 2.4001 3.06863 2.4001 3.4V12.6C2.4001 12.9314 2.66873 13.2 3.0001 13.2H5.6001V12.7664C5.60045 12.5458 5.7794 12.3664 6.0001 12.3664C6.2208 12.3664 6.39975 12.5458 6.4001 12.7664V13.2H13.0001C13.3315 13.2 13.6001 12.9314 13.6001 12.6V3.4C13.6001 3.06863 13.3315 2.8 13.0001 2.8H6.4001V3.23359C6.39996 3.45439 6.22093 3.63359 6.0001 3.63359C5.77927 3.63359 5.60024 3.45439 5.6001 3.23359V2.8H3.0001ZM6.0001 9.76641C6.2208 9.76641 6.39976 9.94578 6.4001 10.1664V11.0336L6.39229 11.1141C6.35499 11.2963 6.1934 11.4336 6.0001 11.4336C5.8068 11.4336 5.64521 11.2963 5.60791 11.1141L5.6001 11.0336V10.1664C5.60044 9.94578 5.77939 9.76641 6.0001 9.76641ZM6.0001 7.16641C6.22081 7.16641 6.39977 7.34577 6.4001 7.56641V8.43359C6.39998 8.65441 6.22094 8.83359 6.0001 8.83359C5.77926 8.83359 5.60022 8.65441 5.6001 8.43359V7.56641C5.60043 7.34577 5.77939 7.16641 6.0001 7.16641ZM6.0001 4.56641C6.22082 4.56641 6.39978 4.74576 6.4001 4.96641V5.83359C6.39997 6.0544 6.22093 6.23359 6.0001 6.23359C5.77926 6.23359 5.60023 6.0544 5.6001 5.83359V4.96641C5.60042 4.74576 5.77938 4.56641 6.0001 4.56641Z" fill="white"/>
</svg>
