<svg width="81" height="14" viewBox="0 0 81 14" fill="none" xmlns="http://www.w3.org/2000/svg">
<path d="M9.41313 0.108431C10.415 -0.0361372 11.4328 -0.0361501 12.4346 0.108431C12.5147 0.119992 12.5952 0.132528 12.7559 0.158236C12.8095 0.166813 12.8364 0.171443 12.8604 0.17679C13.1683 0.245399 13.4089 0.486041 13.4776 0.793978C13.4829 0.818003 13.4876 0.84489 13.4961 0.89847C13.5219 1.05945 13.5344 1.14051 13.5459 1.22074C13.6905 2.2224 13.6905 3.23958 13.5459 4.24124C13.5344 4.32147 13.5219 4.40253 13.4961 4.56351C13.4876 4.61709 13.4829 4.64398 13.4776 4.668C13.4089 4.97594 13.1683 5.21658 12.8604 5.28519C12.8364 5.29054 12.8095 5.29517 12.7559 5.30374C12.5952 5.32945 12.5147 5.34199 12.4346 5.35355C11.9338 5.42583 11.4286 5.46193 10.9239 5.46195L10.6426 5.46878C7.85003 5.61054 5.61038 7.84998 5.46879 10.6426L5.46196 10.9239C5.46195 11.4287 5.42584 11.9337 5.35356 12.4346C5.34199 12.5147 5.3285 12.5951 5.30278 12.7559C5.29422 12.8094 5.29053 12.8364 5.2852 12.8604C5.21659 13.1683 4.97591 13.4089 4.66801 13.4776C4.64399 13.4829 4.61706 13.4876 4.56352 13.4961C4.40254 13.5219 4.32148 13.5344 4.24125 13.5459C3.23957 13.6905 2.22243 13.6905 1.22074 13.5459C1.14052 13.5344 1.05946 13.5219 0.898479 13.4961C0.844916 13.4876 0.818007 13.4829 0.793987 13.4776C0.486069 13.4089 0.245405 13.1683 0.176799 12.8604C0.171468 12.8364 0.166803 12.8094 0.158244 12.7559C0.132537 12.5952 0.120003 12.5147 0.10844 12.4346C-0.0361467 11.4327 -0.0361465 10.415 0.10844 9.41312C0.120006 9.33297 0.132537 9.2525 0.158244 9.09183C0.166834 9.03814 0.171441 9.01041 0.176799 8.98636C0.245528 8.67864 0.486238 8.4388 0.793987 8.37015C0.818001 8.3648 0.844942 8.36016 0.898479 8.35159C1.05946 8.32584 1.14052 8.31239 1.22074 8.30081C1.72139 8.22858 2.22598 8.19244 2.73051 8.19242L2.76957 8.19046C5.67407 8.17022 8.03998 5.88483 8.18559 3.01175L8.19145 2.76956L8.19242 2.7305C8.19245 2.22596 8.22859 1.72139 8.30082 1.22074C8.3124 1.14051 8.32585 1.05945 8.3516 0.89847C8.36017 0.844947 8.36383 0.81799 8.36918 0.793978C8.43779 0.486098 8.67853 0.245495 8.98637 0.17679C9.01037 0.171444 9.03741 0.166788 9.09086 0.158236C9.25184 0.132478 9.3329 0.120009 9.41313 0.108431Z" fill="#49A3A6"/>
<path d="M12.434 8.30082C11.4323 8.15629 10.4151 8.15631 9.41346 8.30082C9.33324 8.3124 9.25218 8.32487 9.0912 8.35063C9.03757 8.35921 9.01074 8.36383 8.98671 8.36918C8.67874 8.43781 8.43814 8.6784 8.36952 8.98637C8.36416 9.01041 8.35955 9.03722 8.35096 9.09086C8.32521 9.25185 8.31274 9.3329 8.30116 9.41313C8.15665 10.4148 8.15663 11.432 8.30116 12.4336C8.31274 12.5139 8.32521 12.5949 8.35096 12.7559C8.35953 12.8094 8.36417 12.8364 8.36952 12.8604C8.43818 13.1683 8.67877 13.409 8.98671 13.4776C9.01072 13.4829 9.03766 13.4866 9.0912 13.4952C9.25218 13.5209 9.33324 13.5344 9.41346 13.5459C10.4151 13.6905 11.4323 13.6905 12.434 13.5459C12.5142 13.5344 12.5953 13.5209 12.7562 13.4952C12.8097 13.4866 12.8367 13.4829 12.8607 13.4776C13.1686 13.4089 13.4093 13.1683 13.4779 12.8604C13.4833 12.8364 13.4869 12.8094 13.4955 12.7559C13.5213 12.5949 13.5347 12.5139 13.5463 12.4336C13.6908 11.432 13.6908 10.4148 13.5463 9.41313C13.5347 9.3329 13.5213 9.25184 13.4955 9.09086C13.4869 9.03731 13.4833 9.01039 13.4779 8.98637C13.4093 8.67844 13.1686 8.43785 12.8607 8.36918C12.8367 8.36383 12.8098 8.35919 12.7562 8.35063C12.5953 8.32487 12.5142 8.3124 12.434 8.30082ZM4.24159 0.108441C3.23971 -0.0361469 2.22198 -0.0361469 1.2201 0.108441C1.14002 0.120003 1.05949 0.132537 0.898815 0.158245C0.845202 0.166824 0.818346 0.171453 0.794323 0.1768C0.48633 0.245418 0.245753 0.485992 0.177135 0.793988C0.171805 0.817968 0.167139 0.844992 0.158581 0.89848C0.132873 1.05915 0.12034 1.13966 0.108776 1.21977C-0.0358104 2.22165 -0.0358104 3.23937 0.108776 4.24125C0.120341 4.32139 0.132873 4.40187 0.158581 4.56254C0.167126 4.61595 0.171816 4.64308 0.177135 4.66703C0.245753 4.97503 0.48633 5.2156 0.794323 5.28422C0.818352 5.28957 0.845184 5.2942 0.898815 5.30278C1.05949 5.32848 1.14002 5.34102 1.2201 5.35258C2.22198 5.49717 3.23971 5.49717 4.24159 5.35258C4.32173 5.34101 4.4022 5.32849 4.56288 5.30278C4.61656 5.29419 4.6443 5.28958 4.66835 5.28422C4.9761 5.21545 5.21695 4.97486 5.28553 4.66703C5.29084 4.64311 5.29458 4.61586 5.30311 4.56254C5.32884 4.40177 5.34232 4.32142 5.35389 4.24125C5.49848 3.23937 5.49848 2.22165 5.35389 1.21977C5.34232 1.13962 5.32883 1.05925 5.30311 0.89848C5.29457 0.845086 5.29085 0.817936 5.28553 0.793988C5.21695 0.486151 4.97611 0.24556 4.66835 0.1768C4.6443 0.171442 4.61656 0.166835 4.56288 0.158245C4.4022 0.132537 4.32174 0.120008 4.24159 0.108441Z" fill="white"/>
<path d="M50.2576 2.84082C51.0501 2.84083 51.7587 2.9435 52.3826 3.15039C53.0095 3.35728 53.5396 3.65738 53.9724 4.04883C54.4082 4.44019 54.7404 4.9191 54.9695 5.48535C55.1987 6.05192 55.3132 6.69399 55.3132 7.41016V13.6543H52.9167V10.8955C52.7926 11.3664 52.6046 11.7913 52.3533 12.1699C52.105 12.5455 51.8008 12.8657 51.4412 13.1299C51.0816 13.3907 50.6728 13.5914 50.2146 13.7314C49.7594 13.8715 49.264 13.9414 48.7292 13.9414C48.1724 13.9414 47.665 13.8646 47.2068 13.7119C46.7516 13.5623 46.3615 13.3509 46.0369 13.0771C45.7123 12.8035 45.4612 12.4739 45.283 12.0889C45.1079 11.7006 45.0203 11.2708 45.0203 10.7998C45.0203 10.3096 45.1171 9.86977 45.3113 9.48145C45.5054 9.09326 45.7845 8.76364 46.1472 8.49316C46.5131 8.22286 46.9584 8.01621 47.4832 7.87305C48.0083 7.72664 48.6007 7.65333 49.2595 7.65332H52.9167V7.41016C52.9167 7.01228 52.8544 6.65496 52.7302 6.33984C52.6061 6.02175 52.4266 5.75102 52.1912 5.52832C51.9589 5.3056 51.6756 5.13533 51.3416 5.01758C51.0073 4.89981 50.6299 4.84082 50.2097 4.84082C49.7832 4.84082 49.4125 4.89059 49.0974 4.98926C48.7856 5.08472 48.5277 5.22124 48.324 5.39941C48.1203 5.57764 47.9685 5.79252 47.8699 6.04395C47.7712 6.2954 47.7224 6.57772 47.7224 6.88965H45.3298C45.3298 6.26915 45.4445 5.7086 45.6736 5.20898C45.9028 4.70926 46.2297 4.28372 46.6531 3.93359C47.0795 3.5804 47.597 3.30982 48.2048 3.12207C48.8159 2.93434 49.5002 2.84082 50.2576 2.84082ZM29.7351 13.6553H27.0613L25.9871 10.4414H20.0955L19.0017 13.6553H16.3855L21.2839 0H24.9031L29.7351 13.6553ZM33.0916 13.6553H30.6941V0H33.0916V13.6553ZM39.5466 12.1553L42.4685 3.12695H44.9177L41.2605 13.6553H37.7751L34.1521 3.12695H36.658L39.5466 12.1553ZM49.3982 9.33398C48.7428 9.33398 48.2463 9.44363 47.9089 9.66309C47.5747 9.88271 47.407 10.208 47.407 10.6377C47.4071 11.0893 47.5902 11.4359 47.9558 11.6777C48.325 11.9164 48.8568 12.0361 49.5505 12.0361C50.0407 12.0361 50.4915 11.9771 50.9021 11.8594C51.3157 11.7385 51.6706 11.5716 51.9666 11.3584C52.2657 11.1451 52.4983 10.8915 52.6638 10.5986C52.8324 10.3028 52.9167 9.98152 52.9167 9.63477V9.33398H49.3982ZM20.821 8.30273H25.2703L23.0603 1.7041L20.821 8.30273Z" fill="white"/>
<path d="M78.3012 13.1474V13.6857H60.7442V13.1474H78.3012ZM80.4638 10.9757V5.86821C80.4638 4.66889 79.4955 3.69678 78.3012 3.69678H60.7442C59.5499 3.69681 58.5819 4.66891 58.5818 5.86821V10.9757C58.5818 12.175 59.5499 13.1473 60.7442 13.1474V13.6857C59.2537 13.6856 58.0455 12.4724 58.0455 10.9757V5.86821C58.0456 4.37153 59.2538 3.15824 60.7442 3.1582H78.3012C79.7917 3.1582 80.9999 4.37151 80.9999 5.86821V10.9757C80.9999 12.4724 79.7917 13.6857 78.3012 13.6857V13.1474C79.4956 13.1474 80.4638 12.175 80.4638 10.9757Z" fill="#49A3A6"/>
<path d="M74.6717 10.0499C74.6717 10.2706 74.7528 10.4335 74.9151 10.5386C75.0773 10.6437 75.2918 10.6963 75.5587 10.6963C75.7733 10.6963 75.9669 10.6648 76.1396 10.6017C76.3175 10.5386 76.4693 10.4519 76.5949 10.3416C76.7204 10.226 76.8173 10.092 76.8853 9.93957C76.9533 9.78717 76.9873 9.62164 76.9873 9.44297V9.13555L75.4802 9.40355C75.1715 9.46136 74.9595 9.54281 74.8444 9.64791C74.7293 9.74776 74.6717 9.88176 74.6717 10.0499ZM73.9653 10.0815C73.9653 9.74513 74.0778 9.47712 74.3028 9.27743C74.5331 9.07774 74.8941 8.93323 75.386 8.84389L76.9873 8.568V8.52859C76.9873 8.18176 76.8905 7.91901 76.6969 7.74034C76.5033 7.55641 76.2285 7.46445 75.8727 7.46445C75.5273 7.46445 75.2578 7.54853 75.0642 7.71669C74.8706 7.87959 74.7502 8.11082 74.7031 8.41035H74.0124C74.0333 8.17913 74.0909 7.96893 74.1851 7.77975C74.2793 7.59057 74.4048 7.42766 74.5618 7.29103C74.7188 7.14915 74.9072 7.04142 75.127 6.96785C75.352 6.88902 75.6058 6.84961 75.8884 6.84961C76.4588 6.84961 76.8984 7.00463 77.2071 7.31468C77.5211 7.61947 77.6781 8.0425 77.6781 8.58377V11.1929H77.0658L77.0423 10.515C76.9795 10.6253 76.8931 10.7278 76.7832 10.8224C76.6733 10.917 76.5478 10.9985 76.4065 11.0668C76.2652 11.1351 76.1082 11.1876 75.9355 11.2244C75.768 11.2665 75.5901 11.2875 75.4017 11.2875C74.9779 11.2875 74.6325 11.185 74.3656 10.9801C74.0987 10.7751 73.9653 10.4756 73.9653 10.0815Z" fill="#49A3A6"/>
<path d="M71.2191 7.55817H70.5126V6.94333H71.2191V5.84766H71.8941V6.94333H73.4797V7.55817H71.8941V9.81258C71.8941 10.1226 71.9596 10.3433 72.0904 10.4747C72.2212 10.6008 72.4541 10.6639 72.789 10.6639C72.878 10.6639 72.9826 10.6586 73.103 10.6481C73.2233 10.6376 73.3489 10.6192 73.4797 10.5929V11.2078C73.171 11.2603 72.8989 11.2866 72.6634 11.2866C72.1715 11.2866 71.8078 11.1657 71.5723 10.924C71.3368 10.677 71.2191 10.2987 71.2191 9.78893V7.55817Z" fill="#49A3A6"/>
<path d="M66.3579 9.0646C66.3579 8.73354 66.405 8.434 66.4992 8.16599C66.5986 7.89273 66.7347 7.65888 66.9074 7.46445C67.0853 7.27001 67.2999 7.12024 67.551 7.01514C67.8022 6.90479 68.0796 6.84961 68.3831 6.84961C68.6814 6.84961 68.9509 6.90216 69.1916 7.00726C69.4375 7.10711 69.6469 7.24899 69.8195 7.43292C69.9975 7.61684 70.1335 7.84018 70.2277 8.10293C70.3219 8.36043 70.369 8.64683 70.369 8.96213V9.30108H67.0565C67.0984 9.71623 67.2344 10.0499 67.4647 10.3022C67.7002 10.5491 68.0142 10.6726 68.4066 10.6726C68.7049 10.6726 68.9535 10.6017 69.1523 10.4598C69.3564 10.3127 69.5029 10.1104 69.5919 9.85286H70.3062C70.1859 10.2943 69.9582 10.6437 69.6233 10.9012C69.2884 11.1587 68.8776 11.2875 68.3909 11.2875C68.0822 11.2875 67.8022 11.2349 67.551 11.1298C67.2999 11.0195 67.0853 10.8671 66.9074 10.6726C66.7347 10.473 66.5986 10.2391 66.4992 9.9711C66.405 9.69783 66.3579 9.39567 66.3579 9.0646ZM69.6626 8.73354C69.6207 8.34466 69.4925 8.03725 69.2779 7.81128C69.0634 7.58006 68.7677 7.46445 68.3909 7.46445C68.0142 7.46445 67.7133 7.58006 67.4882 7.81128C67.2632 8.03725 67.1245 8.34466 67.0722 8.73354H69.6626Z" fill="#49A3A6"/>
<path d="M63.8715 10.5621C64.2797 10.5621 64.5936 10.4806 64.8134 10.3177C65.0384 10.1548 65.1509 9.91831 65.1509 9.60827C65.1509 9.29822 65.0384 9.05912 64.8134 8.89096C64.5936 8.71754 64.2797 8.63083 63.8715 8.63083H62.1603V10.5621H63.8715ZM63.6203 8.01599C64.0651 8.01599 64.4026 7.93717 64.6329 7.77952C64.8684 7.61661 64.9861 7.39065 64.9861 7.10162C64.9861 6.49204 64.5308 6.18724 63.6203 6.18724H62.1603V8.01599H63.6203ZM61.4852 5.55664H63.636C64.3372 5.55664 64.8553 5.67751 65.1902 5.91924C65.5251 6.16097 65.6926 6.54459 65.6926 7.07009C65.6926 7.3959 65.5958 7.66653 65.4021 7.88199C65.2085 8.09745 64.939 8.23145 64.5936 8.284C64.9599 8.33655 65.2608 8.47844 65.4963 8.70966C65.737 8.93562 65.8574 9.24567 65.8574 9.6398C65.8574 10.16 65.6899 10.5489 65.355 10.8064C65.0254 11.0639 64.5361 11.1927 63.8872 11.1927H61.4852V5.55664Z" fill="#49A3A6"/>
</svg>
