<svg width="20" height="20" viewBox="0 0 20 20" fill="none" xmlns="http://www.w3.org/2000/svg">
<rect width="20" height="20" rx="10" fill="white"/>
<mask id="mask0_28697_37854" style="mask-type:luminance" maskUnits="userSpaceOnUse" x="3" y="3" width="14" height="14">
<path d="M16.5 3.5H3.5V16.5H16.5V3.5Z" fill="white"/>
</mask>
<g mask="url(#mask0_28697_37854)">
<path d="M6.23977 11.6847C6.23977 12.4398 5.62977 13.0453 4.87925 13.0453C4.12874 13.0453 3.51416 12.4352 3.51416 11.6847C3.51416 10.9342 4.12417 10.3242 4.87468 10.3242H6.2352V11.6847H6.23977Z" fill="#E01E5A"/>
<path d="M6.91797 11.6847C6.91797 10.9297 7.52798 10.3242 8.27849 10.3242C9.029 10.3242 9.63901 10.9342 9.63901 11.6847V15.0878C9.63901 15.8428 9.029 16.4483 8.27849 16.4483C7.52798 16.4483 6.91797 15.8428 6.91797 15.0878V11.6847Z" fill="#E01E5A"/>
<path d="M8.28289 6.21322C7.52778 6.21322 6.92236 5.60322 6.92236 4.85271C6.92236 4.10219 7.53235 3.49219 8.28289 3.49219C9.03339 3.49219 9.64338 4.10219 9.64338 4.85271V6.21322H8.28289Z" fill="#36C5F0"/>
<path d="M8.2831 6.90332C9.03819 6.90332 9.64363 7.51333 9.64363 8.26384C9.64363 9.01435 9.03361 9.62436 8.2831 9.62436H4.86638C4.1113 9.62436 3.50586 9.01435 3.50586 8.26384C3.50586 7.51333 4.11587 6.90332 4.86638 6.90332H8.2831Z" fill="#36C5F0"/>
<path d="M13.7393 8.26384C13.7393 7.50876 14.3493 6.90332 15.0998 6.90332C15.8503 6.90332 16.4603 7.51333 16.4603 8.26384C16.4603 9.01435 15.8503 9.62436 15.0998 9.62436H13.7393V8.26384Z" fill="#2EB67D"/>
<path d="M13.0609 8.26583C13.0609 9.02092 12.4509 9.62636 11.7004 9.62636C10.9498 9.62636 10.3398 9.01637 10.3398 8.26583V4.85369C10.3398 4.0986 10.9498 3.49316 11.7004 3.49316C12.4509 3.49316 13.0609 4.0986 13.0609 4.85369V8.26583Z" fill="#2EB67D"/>
<path d="M11.694 13.7275C12.4491 13.7275 13.0545 14.3375 13.0545 15.0881C13.0545 15.8386 12.4446 16.4486 11.694 16.4486C10.9435 16.4486 10.3335 15.8386 10.3335 15.0881V13.7275H11.694Z" fill="#ECB22E"/>
<path d="M11.694 13.0453C10.9389 13.0453 10.3335 12.4352 10.3335 11.6847C10.3335 10.9342 10.9435 10.3242 11.694 10.3242H15.1107C15.8658 10.3242 16.4713 10.9342 16.4713 11.6847C16.4713 12.4352 15.8613 13.0453 15.1107 13.0453H11.694Z" fill="#ECB22E"/>
</g>
</svg>
