<svg width="81" height="14" viewBox="0 0 81 14" fill="none" xmlns="http://www.w3.org/2000/svg">
<path d="M9.41311 0.108441C10.415 -0.0361469 11.4327 -0.0361469 12.4346 0.108441C12.5147 0.120007 12.5952 0.132537 12.7559 0.158245C12.8093 0.166787 12.8364 0.171484 12.8604 0.1768C13.1684 0.245417 13.4089 0.485996 13.4776 0.793988C13.4829 0.818033 13.4875 0.844806 13.4961 0.89848C13.5218 1.05923 13.5353 1.13966 13.5469 1.21977C13.6915 2.22158 13.6915 3.23944 13.5469 4.24125C13.5353 4.32148 13.5219 4.40254 13.4961 4.56352C13.4876 4.61693 13.4829 4.64402 13.4776 4.66801C13.4088 4.97582 13.1682 5.21661 12.8604 5.2852C12.8365 5.29051 12.8092 5.29425 12.7559 5.30278C12.5951 5.3285 12.5148 5.34199 12.4346 5.35356C11.934 5.42581 11.4294 5.46191 10.9248 5.46196C7.90836 5.46196 5.46294 7.90741 5.46291 10.9239H5.46194C5.46192 11.4286 5.42582 11.9338 5.35354 12.4346C5.34198 12.5147 5.32944 12.5952 5.30373 12.7559C5.29515 12.8096 5.29054 12.8363 5.28518 12.8604C5.21656 13.1684 4.97598 13.409 4.66799 13.4776C4.64399 13.4829 4.61704 13.4876 4.5635 13.4961C4.40283 13.5218 4.32231 13.5344 4.24221 13.5459C3.24034 13.6905 2.2226 13.6905 1.22073 13.5459C1.14058 13.5344 1.06011 13.5218 0.899437 13.4961C0.84575 13.4875 0.818017 13.4829 0.793969 13.4776C0.486218 13.4088 0.246359 13.1682 0.177758 12.8604C0.172402 12.8364 0.167785 12.8095 0.159203 12.7559C0.133488 12.5952 0.119985 12.5147 0.108422 12.4346C-0.0361527 11.4328 -0.0361285 10.4149 0.108422 9.41313C0.12 9.3329 0.133446 9.25184 0.159203 9.09086C0.167752 9.03743 0.172413 9.01036 0.177758 8.98637C0.246454 8.67868 0.486286 8.43789 0.793969 8.36918C0.818017 8.36383 0.845751 8.36019 0.899437 8.3516C1.06019 8.32588 1.14056 8.31239 1.22073 8.30082C1.7217 8.22853 2.2266 8.19242 2.73147 8.19243L2.76955 8.19145C5.67417 8.1714 8.04085 5.88489 8.18655 3.01176L8.19241 2.76957L8.19338 2.73051C8.1934 2.22577 8.2295 1.72062 8.30178 1.21977C8.31334 1.13969 8.32588 1.05915 8.35159 0.89848C8.36017 0.844814 8.36479 0.818029 8.37014 0.793988C8.43876 0.485992 8.67933 0.245418 8.98733 0.1768C9.01132 0.171467 9.03831 0.166807 9.09182 0.158245C9.25249 0.132538 9.333 0.120004 9.41311 0.108441Z" fill="#49A3A6"/>
<path d="M12.4346 8.30082C11.4328 8.15626 10.4149 8.15624 9.4131 8.30082C9.333 8.31239 9.25253 8.32589 9.09181 8.3516C9.03827 8.36017 9.01132 8.36384 8.98732 8.36918C8.6794 8.43779 8.43881 8.67848 8.37013 8.98637C8.36478 9.01038 8.36014 9.03734 8.35158 9.09086C8.32582 9.25185 8.31335 9.3329 8.30177 9.41313C8.15724 10.4148 8.15726 11.432 8.30177 12.4336C8.31335 12.5139 8.32582 12.5949 8.35158 12.7559C8.36016 12.8095 8.36478 12.8364 8.37013 12.8604C8.43876 13.1684 8.67934 13.409 8.98732 13.4776C9.01135 13.4829 9.03819 13.4876 9.09181 13.4961C9.25248 13.5218 9.33302 13.5344 9.4131 13.5459C10.4149 13.6905 11.4327 13.6905 12.4346 13.5459C12.5148 13.5344 12.5959 13.5219 12.7569 13.4961C12.8103 13.4876 12.8374 13.4829 12.8613 13.4776C13.1692 13.4089 13.4099 13.1683 13.4785 12.8604C13.4839 12.8364 13.4875 12.8094 13.4961 12.7559C13.5219 12.5949 13.5353 12.5139 13.5469 12.4336C13.6914 11.432 13.6914 10.4148 13.5469 9.41313C13.5353 9.3329 13.5219 9.25184 13.4961 9.09086C13.4876 9.0374 13.4839 9.01037 13.4785 8.98637C13.4099 8.67853 13.1692 8.43788 12.8613 8.36918C12.8374 8.36384 12.8102 8.36014 12.7569 8.3516C12.5959 8.32585 12.5148 8.3124 12.4346 8.30082ZM4.2422 0.108441C3.24033 -0.0361469 2.22259 -0.0361469 1.22072 0.108441C1.1406 0.120005 1.0601 0.132537 0.899429 0.158245C0.845943 0.166803 0.818917 0.17147 0.794937 0.1768C0.486944 0.245418 0.246367 0.485992 0.17775 0.793988C0.172401 0.818014 0.167775 0.844856 0.159195 0.89848C0.133487 1.05915 0.120952 1.13968 0.10939 1.21977C-0.035195 2.22164 -0.0351925 3.23938 0.10939 4.24125C0.120968 4.32148 0.133438 4.40254 0.159195 4.56352C0.167735 4.6169 0.172407 4.64403 0.17775 4.66801C0.246497 4.9758 0.487089 5.21661 0.794937 5.2852C0.818887 5.29052 0.84603 5.29423 0.899429 5.30278C1.0602 5.3285 1.14057 5.34199 1.22072 5.35356C2.22259 5.49815 3.24033 5.49815 4.2422 5.35356C4.32237 5.34199 4.40272 5.3285 4.56349 5.30278C4.61683 5.29424 4.64405 5.29051 4.66798 5.2852C4.97583 5.21661 5.21642 4.97579 5.28517 4.66801C5.29051 4.64403 5.29519 4.61689 5.30373 4.56352C5.32948 4.40254 5.34195 4.32148 5.35353 4.24125C5.49812 3.23938 5.49812 2.22165 5.35353 1.21977C5.34197 1.13969 5.32943 1.05915 5.30373 0.89848C5.29514 0.844843 5.29052 0.818019 5.28517 0.793988C5.21655 0.485992 4.97598 0.245418 4.66798 0.1768C4.64402 0.171478 4.61692 0.166794 4.56349 0.158245C4.40282 0.132537 4.32233 0.120006 4.2422 0.108441Z" fill="black"/>
<path d="M50.2578 2.84082C51.0503 2.84083 51.759 2.9435 52.3828 3.15039C53.0097 3.35728 53.5398 3.65738 53.9727 4.04883C54.4084 4.44019 54.7406 4.9191 54.9697 5.48535C55.1989 6.05192 55.3135 6.69399 55.3135 7.41016V13.6543H52.917V10.8955C52.7929 11.3664 52.6049 11.7913 52.3535 12.1699C52.1053 12.5455 51.801 12.8657 51.4414 13.1299C51.0818 13.3907 50.673 13.5914 50.2148 13.7314C49.7597 13.8715 49.2642 13.9414 48.7295 13.9414C48.1727 13.9414 47.6652 13.8646 47.207 13.7119C46.7519 13.5623 46.3618 13.3509 46.0371 13.0771C45.7125 12.8035 45.4614 12.4739 45.2832 12.0889C45.1082 11.7006 45.0205 11.2708 45.0205 10.7998C45.0205 10.3096 45.1174 9.86977 45.3115 9.48145C45.5057 9.09326 45.7847 8.76364 46.1475 8.49316C46.5133 8.22286 46.9586 8.01621 47.4834 7.87305C48.0085 7.72664 48.6009 7.65333 49.2598 7.65332H52.917V7.41016C52.917 7.01228 52.8546 6.65496 52.7305 6.33984C52.6063 6.02175 52.4268 5.75102 52.1914 5.52832C51.9591 5.3056 51.6759 5.13533 51.3418 5.01758C51.0076 4.89981 50.6301 4.84082 50.21 4.84082C49.7835 4.84082 49.4128 4.89059 49.0977 4.98926C48.7858 5.08472 48.5279 5.22124 48.3242 5.39941C48.1205 5.57764 47.9688 5.79252 47.8701 6.04395C47.7714 6.2954 47.7227 6.57772 47.7227 6.88965H45.3301C45.3301 6.26915 45.4448 5.7086 45.6738 5.20898C45.903 4.70926 46.23 4.28372 46.6533 3.93359C47.0798 3.5804 47.5973 3.30982 48.2051 3.12207C48.8161 2.93434 49.5004 2.84082 50.2578 2.84082ZM29.7354 13.6553H27.0615L25.9873 10.4414H20.0957L19.002 13.6553H16.3857L21.2842 0H24.9033L29.7354 13.6553ZM33.0918 13.6553H30.6943V0H33.0918V13.6553ZM39.5469 12.1553L42.4688 3.12695H44.918L41.2607 13.6553H37.7754L34.1523 3.12695H36.6582L39.5469 12.1553ZM49.3984 9.33398C48.743 9.33398 48.2466 9.44363 47.9092 9.66309C47.575 9.88271 47.4072 10.208 47.4072 10.6377C47.4073 11.0893 47.5904 11.4359 47.9561 11.6777C48.3252 11.9164 48.8571 12.0361 49.5508 12.0361C50.041 12.0361 50.4917 11.9771 50.9023 11.8594C51.316 11.7385 51.6708 11.5716 51.9668 11.3584C52.266 11.1451 52.4986 10.8915 52.6641 10.5986C52.8326 10.3028 52.917 9.98152 52.917 9.63477V9.33398H49.3984ZM20.8213 8.30273H25.2705L23.0605 1.7041L20.8213 8.30273Z" fill="black"/>
<path d="M78.3016 13.1474V13.6857H60.7445V13.1474H78.3016ZM80.4642 10.9757V5.86821C80.4642 4.66889 79.4959 3.69678 78.3016 3.69678H60.7445C59.5503 3.69681 58.5822 4.66891 58.5822 5.86821V10.9757C58.5822 12.175 59.5503 13.1473 60.7445 13.1474V13.6857C59.2541 13.6856 58.0459 12.4724 58.0459 10.9757V5.86821C58.0459 4.37153 59.2541 3.15824 60.7445 3.1582H78.3016C79.792 3.1582 81.0002 4.37151 81.0003 5.86821V10.9757C81.0003 12.4724 79.7921 13.6857 78.3016 13.6857V13.1474C79.4959 13.1474 80.4642 12.175 80.4642 10.9757Z" fill="#49A3A6"/>
<path d="M74.6723 10.0499C74.6723 10.2706 74.7534 10.4335 74.9156 10.5386C75.0778 10.6437 75.2924 10.6963 75.5593 10.6963C75.7738 10.6963 75.9674 10.6648 76.1401 10.6017C76.3181 10.5386 76.4698 10.4519 76.5954 10.3416C76.721 10.226 76.8178 10.092 76.8858 9.93957C76.9539 9.78717 76.9879 9.62164 76.9879 9.44297V9.13555L75.4808 9.40355C75.172 9.46136 74.9601 9.54281 74.845 9.64791C74.7298 9.74776 74.6723 9.88176 74.6723 10.0499ZM73.9658 10.0815C73.9658 9.74513 74.0783 9.47712 74.3033 9.27743C74.5336 9.07774 74.8947 8.93323 75.3866 8.84389L76.9879 8.568V8.52859C76.9879 8.18176 76.8911 7.91901 76.6974 7.74034C76.5038 7.55641 76.2291 7.46445 75.8733 7.46445C75.5279 7.46445 75.2584 7.54853 75.0648 7.71669C74.8711 7.87959 74.7508 8.11082 74.7037 8.41035H74.0129C74.0338 8.17913 74.0914 7.96893 74.1856 7.77975C74.2798 7.59057 74.4054 7.42766 74.5624 7.29103C74.7194 7.14915 74.9078 7.04142 75.1275 6.96785C75.3526 6.88902 75.6064 6.84961 75.8889 6.84961C76.4593 6.84961 76.8989 7.00463 77.2077 7.31468C77.5216 7.61947 77.6786 8.0425 77.6786 8.58377V11.1929H77.0664L77.0428 10.515C76.98 10.6253 76.8937 10.7278 76.7838 10.8224C76.6739 10.917 76.5483 10.9985 76.407 11.0668C76.2657 11.1351 76.1087 11.1876 75.936 11.2244C75.7686 11.2665 75.5907 11.2875 75.4023 11.2875C74.9784 11.2875 74.633 11.185 74.3661 10.9801C74.0993 10.7751 73.9658 10.4756 73.9658 10.0815Z" fill="#49A3A6"/>
<path d="M71.2196 7.55914H70.5132V6.94431H71.2196V5.84863H71.8947V6.94431H73.4803V7.55914H71.8947V9.81355C71.8947 10.1236 71.9601 10.3443 72.0909 10.4757C72.2218 10.6018 72.4546 10.6649 72.7895 10.6649C72.8785 10.6649 72.9832 10.6596 73.1035 10.6491C73.2239 10.6386 73.3495 10.6202 73.4803 10.5939V11.2088C73.1715 11.2613 72.8994 11.2876 72.6639 11.2876C72.172 11.2876 71.8084 11.1667 71.5729 10.925C71.3374 10.678 71.2196 10.2996 71.2196 9.7899V7.55914Z" fill="#49A3A6"/>
<path d="M66.3584 9.0646C66.3584 8.73354 66.4055 8.434 66.4997 8.16599C66.5991 7.89273 66.7352 7.65888 66.9079 7.46445C67.0858 7.27001 67.3003 7.12024 67.5515 7.01514C67.8027 6.90479 68.0801 6.84961 68.3836 6.84961C68.6819 6.84961 68.9514 6.90216 69.1921 7.00726C69.438 7.10711 69.6473 7.24899 69.82 7.43292C69.998 7.61684 70.134 7.84018 70.2282 8.10293C70.3224 8.36043 70.3695 8.64683 70.3695 8.96213V9.30108H67.057C67.0989 9.71623 67.2349 10.0499 67.4652 10.3022C67.7007 10.5491 68.0146 10.6726 68.4071 10.6726C68.7054 10.6726 68.954 10.6017 69.1528 10.4598C69.3569 10.3127 69.5034 10.1104 69.5924 9.85286H70.3067C70.1863 10.2943 69.9587 10.6437 69.6238 10.9012C69.2889 11.1587 68.8781 11.2875 68.3914 11.2875C68.0827 11.2875 67.8027 11.2349 67.5515 11.1298C67.3003 11.0195 67.0858 10.8671 66.9079 10.6726C66.7352 10.473 66.5991 10.2391 66.4997 9.9711C66.4055 9.69783 66.3584 9.39567 66.3584 9.0646ZM69.663 8.73354C69.6212 8.34466 69.493 8.03725 69.2784 7.81128C69.0639 7.58006 68.7682 7.46445 68.3914 7.46445C68.0146 7.46445 67.7137 7.58006 67.4887 7.81128C67.2637 8.03725 67.125 8.34466 67.0727 8.73354H69.663Z" fill="#49A3A6"/>
<path d="M63.8721 10.5621C64.2803 10.5621 64.5942 10.4806 64.814 10.3177C65.039 10.1548 65.1516 9.91831 65.1516 9.60827C65.1516 9.29822 65.039 9.05912 64.814 8.89096C64.5942 8.71754 64.2803 8.63083 63.8721 8.63083H62.1609V10.5621H63.8721ZM63.6209 8.01599C64.0657 8.01599 64.4032 7.93717 64.6335 7.77952C64.869 7.61661 64.9867 7.39065 64.9867 7.10162C64.9867 6.49204 64.5314 6.18724 63.6209 6.18724H62.1609V8.01599H63.6209ZM61.4858 5.55664H63.6366C64.3378 5.55664 64.8559 5.67751 65.1908 5.91924C65.5257 6.16097 65.6932 6.54459 65.6932 7.07009C65.6932 7.3959 65.5964 7.66653 65.4027 7.88199C65.2091 8.09745 64.9396 8.23145 64.5942 8.284C64.9606 8.33655 65.2615 8.47844 65.4969 8.70966C65.7377 8.93562 65.858 9.24567 65.858 9.6398C65.858 10.16 65.6906 10.5489 65.3556 10.8064C65.026 11.0639 64.5367 11.1927 63.8878 11.1927H61.4858V5.55664Z" fill="#49A3A6"/>
</svg>
