<svg width="256" height="256" viewBox="0 0 256 256" fill="none" xmlns="http://www.w3.org/2000/svg">
<rect width="256" height="256" fill="#2A2A38"/>
<path d="M152.996 63.0483C162.681 61.6506 172.516 61.6506 182.202 63.0483C182.977 63.1602 183.756 63.2847 185.312 63.5337C185.831 63.6166 186.09 63.6577 186.323 63.7094C189.3 64.3728 191.625 66.6981 192.289 69.6753C192.34 69.9077 192.382 70.168 192.465 70.687C192.714 72.2429 192.839 73.0209 192.951 73.7964C194.348 83.4816 194.348 93.3181 192.951 103.003C192.839 103.779 192.714 104.557 192.465 106.113C192.382 106.632 192.34 106.891 192.289 107.124C191.625 110.101 189.3 112.427 186.323 113.09C186.09 113.142 185.831 113.183 185.312 113.266C183.756 113.515 182.977 113.64 182.202 113.751C177.359 114.45 172.48 114.799 167.6 114.799V114.8C138.441 114.801 114.803 138.438 114.801 167.597H114.8C114.8 172.478 114.45 177.359 113.751 182.203C113.639 182.978 113.515 183.757 113.266 185.313C113.183 185.832 113.141 186.091 113.089 186.324C112.426 189.301 110.101 191.626 107.123 192.29C106.891 192.341 106.632 192.383 106.113 192.466C104.557 192.715 103.779 192.84 103.003 192.952C93.3182 194.349 83.4815 194.349 73.7963 192.952C73.0209 192.84 72.2428 192.715 70.687 192.466C70.1681 192.383 69.9086 192.341 69.6762 192.29C66.6988 191.626 64.3737 189.301 63.7104 186.324C63.6586 186.091 63.6167 185.832 63.5336 185.313C63.2846 183.757 63.1602 182.978 63.0483 182.203C61.6506 172.517 61.6506 162.682 63.0483 152.997C63.1602 152.221 63.2846 151.442 63.5336 149.886C63.6166 149.367 63.6586 149.108 63.7104 148.875C64.3738 145.898 66.6989 143.573 69.6762 142.91C69.9086 142.858 70.1682 142.816 70.687 142.733C72.2428 142.484 73.0209 142.359 73.7963 142.248C78.6389 141.549 83.5196 141.2 88.3998 141.2V141.197C117.332 141.196 140.828 117.926 141.194 89.0805L141.199 88.3979C141.199 83.5183 141.548 78.6384 142.247 73.7964C142.358 73.0209 142.483 72.2429 142.732 70.687C142.815 70.168 142.857 69.9077 142.909 69.6753C143.572 66.6981 145.897 64.3728 148.874 63.7094C149.107 63.6577 149.366 63.6167 149.885 63.5337C151.441 63.2847 152.22 63.1602 152.996 63.0483Z" fill="#49A3A6"/>
<path d="M182.203 142.247C172.518 140.85 162.682 140.85 152.997 142.247C152.221 142.359 151.442 142.484 149.886 142.733C149.367 142.816 149.108 142.858 148.876 142.91C145.898 143.573 143.573 145.898 142.91 148.875C142.858 149.108 142.816 149.367 142.733 149.886C142.484 151.442 142.36 152.221 142.248 152.997C140.85 162.682 140.85 172.517 142.248 182.203C142.36 182.978 142.484 183.756 142.733 185.312C142.816 185.831 142.858 186.091 142.91 186.324C143.573 189.301 145.898 191.626 148.876 192.289C149.108 192.341 149.367 192.382 149.886 192.465C151.442 192.714 152.221 192.839 152.997 192.951C162.682 194.348 172.518 194.348 182.203 192.951C182.978 192.839 183.756 192.714 185.312 192.465C185.831 192.382 186.091 192.341 186.324 192.289C189.301 191.626 191.626 189.301 192.29 186.324C192.341 186.091 192.382 185.831 192.465 185.312C192.714 183.756 192.839 182.978 192.951 182.203C194.348 172.517 194.348 162.681 192.951 152.996C192.839 152.22 192.714 151.442 192.465 149.886C192.382 149.367 192.341 149.108 192.29 148.875C191.626 145.898 189.301 143.573 186.324 142.91C186.091 142.858 185.831 142.816 185.312 142.733C183.756 142.484 182.978 142.359 182.203 142.247ZM103.003 63.0473C93.3184 61.6496 83.4825 61.6496 73.7974 63.0473C73.022 63.1592 72.2439 63.2837 70.688 63.5327C70.1693 63.6157 69.9097 63.6577 69.6773 63.7094C66.6999 64.3727 64.3738 66.6978 63.7105 69.6752C63.6587 69.9076 63.6177 70.1672 63.5347 70.686C63.2857 72.2422 63.1613 73.0208 63.0494 73.7963C61.6517 83.4815 61.6516 93.3172 63.0494 103.002C63.1613 103.778 63.2857 104.557 63.5347 106.113C63.6177 106.631 63.6587 106.891 63.7105 107.123C64.3739 110.101 66.6999 112.426 69.6773 113.089C69.9097 113.141 70.1693 113.183 70.688 113.266C72.2439 113.515 73.022 113.639 73.7974 113.751C83.4825 115.149 93.3184 115.149 103.003 113.751C103.779 113.639 104.558 113.515 106.114 113.266C106.633 113.183 106.892 113.141 107.125 113.089C110.102 112.426 112.427 110.101 113.09 107.123C113.142 106.891 113.184 106.631 113.267 106.113C113.516 104.557 113.641 103.778 113.752 103.002C115.15 93.3172 115.15 83.4815 113.752 73.7963C113.641 73.0208 113.516 72.2422 113.267 70.686C113.184 70.1671 113.142 69.9077 113.09 69.6752C112.427 66.6978 110.102 64.3727 107.125 63.7094C106.892 63.6576 106.633 63.6157 106.114 63.5327C104.558 63.2837 103.779 63.1592 103.003 63.0473Z" fill="white"/>
</svg>
