<svg width="50" height="50" viewBox="0 0 50 50" fill="none" xmlns="http://www.w3.org/2000/svg">
<path d="M34.4679 0.398062C38.1365 -0.131385 41.8627 -0.131385 45.5313 0.398062C45.825 0.440449 46.1198 0.487369 46.7091 0.581656C46.9054 0.613069 47.0039 0.628479 47.0919 0.648062C48.2195 0.899289 49.1002 1.78025 49.3516 2.90783C49.3713 2.99589 49.3876 3.09503 49.419 3.29162C49.5133 3.88082 49.5602 4.17565 49.6026 4.46935C50.132 8.13786 50.132 11.8633 49.6026 15.5319C49.5602 15.8256 49.5133 16.1211 49.419 16.7106C49.3876 16.9069 49.3712 17.0054 49.3516 17.0934C49.1003 18.2211 48.2196 19.1019 47.0919 19.3531C47.0039 19.3727 46.9054 19.3881 46.7091 19.4195C46.1197 19.5138 45.8251 19.5617 45.5313 19.6041C43.6971 19.8688 41.8485 20.0006 40.0001 20.0006C28.9551 20.001 20.0017 28.9547 20.0011 39.9996H20.0001C20.0001 41.8484 19.8683 43.6973 19.6036 45.5319C19.5612 45.8256 19.5133 46.1211 19.419 46.7106C19.3876 46.9069 19.3722 47.0054 19.3526 47.0934C19.1013 48.221 18.2205 49.1018 17.0929 49.3531C17.0048 49.3727 16.9064 49.3881 16.71 49.4195C16.1206 49.5139 15.8251 49.5617 15.5313 49.6041C11.8629 50.1335 8.13729 50.1335 4.46883 49.6041C4.1751 49.5617 3.88041 49.5138 3.29109 49.4195C3.09482 49.3881 2.99623 49.3727 2.90828 49.3531C1.78051 49.1019 0.898831 48.2211 0.647539 47.0934C0.627931 47.0054 0.612552 46.9069 0.581133 46.7106C0.486816 46.1211 0.439935 45.8256 0.397539 45.5319C-0.131852 41.8633 -0.131872 38.1379 0.397539 34.4694C0.439925 34.1756 0.48686 33.8808 0.581133 33.2916C0.612587 33.095 0.62792 32.9959 0.647539 32.9078C0.898894 31.7802 1.78058 30.8993 2.90828 30.6481C2.99622 30.6285 3.09486 30.6131 3.29109 30.5817C3.88038 30.4874 4.17511 30.4405 4.46883 30.3981C6.30309 30.1333 8.15157 30.0006 10.0001 30.0006V29.9986C20.8728 29.9984 29.7192 21.323 29.9932 10.5162L30.0001 9.99962C30.0001 8.15146 30.1319 6.30326 30.3966 4.46935C30.439 4.17563 30.4869 3.88088 30.5811 3.29162C30.6126 3.09503 30.6279 2.99589 30.6475 2.90783C30.8989 1.78022 31.7796 0.899295 32.9073 0.648062C32.9953 0.628451 33.0937 0.613088 33.2901 0.581656C33.8793 0.487391 34.1742 0.44044 34.4679 0.398062Z" fill="white"/>
<path d="M45.5312 30.3971C41.8627 29.8677 38.1371 29.8677 34.4687 30.3971C34.175 30.4395 33.8801 30.4874 33.2909 30.5817C33.0943 30.6131 32.9952 30.6284 32.9071 30.6481C31.7796 30.8994 30.8987 31.7802 30.6474 32.9078C30.6278 32.9958 30.6124 33.0943 30.581 33.2906C30.4867 33.8801 30.4398 34.1756 30.3974 34.4694C29.868 38.1379 29.868 41.8633 30.3974 45.5319C30.4398 45.8256 30.4867 46.1204 30.581 46.7096C30.6124 46.9062 30.6278 47.0053 30.6474 47.0934C30.8987 48.2209 31.7796 49.1018 32.9071 49.3531C32.9952 49.3728 33.0943 49.3881 33.2909 49.4195C33.8801 49.5138 34.175 49.5608 34.4687 49.6031C38.1372 50.1326 41.8626 50.1326 45.5312 49.6031C45.8249 49.5608 46.1197 49.5138 46.7089 49.4195C46.9055 49.3881 47.0046 49.3728 47.0927 49.3531C48.2202 49.1018 49.1011 48.2209 49.3525 47.0934C49.3721 47.0053 49.3874 46.9062 49.4189 46.7096C49.5131 46.1204 49.5601 45.8256 49.6025 45.5319C50.1319 41.8633 50.1319 38.1379 49.6025 34.4694C49.5601 34.1756 49.5132 33.8801 49.4189 33.2906C49.3874 33.0943 49.3721 32.9958 49.3525 32.9078C49.1012 31.7802 48.2203 30.8994 47.0927 30.6481C47.0046 30.6284 46.9055 30.6131 46.7089 30.5817C46.1197 30.4874 45.8249 30.4395 45.5312 30.3971ZM15.5321 0.397086C11.8635 -0.132362 8.13731 -0.132362 4.46867 0.397086C4.17497 0.439473 3.88026 0.487363 3.29093 0.581656C3.09448 0.613088 2.99614 0.628458 2.90812 0.648062C1.7804 0.899307 0.899692 1.78014 0.648356 2.90783C0.628746 2.99585 0.612397 3.09424 0.580973 3.29064C0.486656 3.88012 0.439775 4.17558 0.397379 4.46935C-0.132004 8.13784 -0.132023 11.8634 0.397379 15.5319C0.439764 15.8255 0.486706 16.1204 0.580973 16.7096C0.612427 16.9062 0.628737 17.0053 0.648356 17.0934C0.899749 18.221 1.78047 19.1019 2.90812 19.3531C2.99613 19.3727 3.0945 19.3881 3.29093 19.4195C3.88019 19.5138 4.17501 19.5608 4.46867 19.6031C8.13731 20.1326 11.8635 20.1326 15.5321 19.6031C15.8258 19.5608 16.1206 19.5138 16.7099 19.4195C16.9063 19.3881 17.0047 19.3727 17.0927 19.3531C18.2203 19.1019 19.1011 18.221 19.3525 17.0934C19.3721 17.0053 19.3884 16.9062 19.4198 16.7096C19.5141 16.1204 19.561 15.8255 19.6034 15.5319C20.1328 11.8634 20.1328 8.13784 19.6034 4.46935C19.561 4.17558 19.5142 3.88012 19.4198 3.29064C19.3884 3.09424 19.3721 2.99585 19.3525 2.90783C19.1011 1.78014 18.2204 0.899307 17.0927 0.648062C17.0047 0.62846 16.9063 0.613088 16.7099 0.581656C16.1205 0.48736 15.8259 0.439474 15.5321 0.397086Z" fill="white"/>
</svg>
