<svg width="203" height="52" viewBox="0 0 203 52" fill="none" xmlns="http://www.w3.org/2000/svg">
<path d="M34.4684 0.397054C38.1369 -0.132358 41.8624 -0.132345 45.5309 0.397054C45.8246 0.43945 46.1201 0.486331 46.7096 0.580648C46.9059 0.612062 47.0044 0.628424 47.0924 0.648031C48.22 0.899396 49.1009 1.7801 49.3522 2.9078C49.3718 2.99581 49.3871 3.09417 49.4186 3.29061C49.5128 3.87988 49.5598 4.17468 49.6022 4.46834C50.1316 8.13701 50.1316 11.8632 49.6022 15.5318C49.5598 15.8255 49.5129 16.1203 49.4186 16.7096C49.3871 16.906 49.3718 17.0044 49.3522 17.0924C49.1009 18.2201 48.22 19.1008 47.0924 19.3521C47.0044 19.3717 46.9059 19.3881 46.7096 19.4195C46.1201 19.5138 45.8246 19.5607 45.5309 19.6031C43.6969 19.8678 41.8488 20.0005 40.0006 20.0006C28.9555 20.0008 20.0021 28.9545 20.0016 39.9996H20.0006C20.0006 41.8484 19.8679 43.6973 19.6031 45.5318C19.5608 45.8255 19.5138 46.1203 19.4195 46.7096C19.3881 46.906 19.3718 47.0043 19.3522 47.0924C19.1009 48.2202 18.2202 49.1009 17.0924 49.3521C17.0044 49.3717 16.9061 49.3881 16.7096 49.4195C16.1203 49.5138 15.8255 49.5607 15.5318 49.6031C11.8632 50.1326 8.13701 50.1326 4.46837 49.6031C4.17471 49.5607 3.87989 49.5138 3.29064 49.4195C3.09408 49.3881 2.99588 49.3717 2.90783 49.3521C1.78003 49.1009 0.89932 48.2202 0.648059 47.0924C0.628457 47.0043 0.612112 46.906 0.580677 46.7096C0.486392 46.1203 0.439469 45.8255 0.397083 45.5318C-0.132361 41.8632 -0.132361 38.137 0.397083 34.4683C0.439468 34.1747 0.486393 33.8799 0.580677 33.2906C0.612119 33.0941 0.628451 32.9958 0.648059 32.9078C0.899321 31.78 1.78003 30.8993 2.90783 30.648C2.99588 30.6284 3.09407 30.6121 3.29064 30.5806C3.8799 30.4864 4.17471 30.4394 4.46837 30.3971C6.30283 30.1323 8.15189 29.9996 10.0006 29.9996V29.9986C20.873 29.9981 29.7196 21.3227 29.9938 10.5162L29.9996 10.0445C29.9975 8.18113 30.1302 6.31736 30.3971 4.46834C30.4395 4.17467 30.4864 3.87989 30.5807 3.29061C30.6121 3.09417 30.6275 2.9958 30.6471 2.9078C30.8983 1.78014 31.7793 0.899435 32.9068 0.648031C32.9949 0.628412 33.094 0.612103 33.2906 0.580648C33.8798 0.486378 34.1747 0.43944 34.4684 0.397054Z" fill="#49A3A6"/>
<path d="M45.5316 30.3971C41.863 29.8676 38.1368 29.8676 34.4682 30.3971C34.1745 30.4394 33.8796 30.4864 33.2904 30.5807C33.0939 30.6121 32.9956 30.6284 32.9076 30.648C31.7799 30.8993 30.8991 31.78 30.6478 32.9078C30.6283 32.9958 30.6128 33.0943 30.5814 33.2906C30.4871 33.88 30.4393 34.1746 30.3969 34.4683C29.8674 38.137 29.8674 41.8632 30.3969 45.5318C30.4392 45.8255 30.4872 46.1203 30.5814 46.7096C30.6129 46.906 30.6282 47.0043 30.6478 47.0924C30.8991 48.2202 31.7798 49.1009 32.9076 49.3521C32.9956 49.3717 33.094 49.3871 33.2904 49.4185C33.8797 49.5128 34.1745 49.5607 34.4682 49.6031C38.1368 50.1326 41.863 50.1326 45.5316 49.6031C45.8254 49.5607 46.12 49.5128 46.7094 49.4185C46.9058 49.3871 47.0042 49.3717 47.0922 49.3521C48.2199 49.1009 49.1007 48.2201 49.3519 47.0924C49.3716 47.0043 49.3879 46.9061 49.4193 46.7096C49.5136 46.1204 49.5605 45.8255 49.6029 45.5318C50.1324 41.8632 50.1324 38.137 49.6029 34.4683C49.5605 34.1746 49.5136 33.8799 49.4193 33.2906C49.3879 33.0942 49.3715 32.9958 49.3519 32.9078C49.1007 31.78 48.22 30.8993 47.0922 30.648C47.0041 30.6284 46.9059 30.6121 46.7094 30.5807C46.1201 30.4864 45.8253 30.4394 45.5316 30.3971ZM15.5316 0.397059C11.8631 -0.132341 8.13764 -0.132364 4.46913 0.397059C4.17542 0.439446 3.88064 0.486373 3.29139 0.580652C3.09507 0.612064 2.99655 0.628453 2.90858 0.648035C1.78078 0.899299 0.899101 1.77999 0.647839 2.9078C0.628264 2.99575 0.612836 3.09434 0.581433 3.29061C0.487148 3.8799 0.440227 4.17464 0.397839 4.46835C-0.131605 8.13701 -0.131605 11.8632 0.397839 15.5318C0.440218 15.8254 0.487164 16.1204 0.581433 16.7096C0.612863 16.906 0.628232 17.0043 0.647839 17.0924C0.899101 18.2202 1.78078 19.1009 2.90858 19.3521C2.99653 19.3717 3.09513 19.3871 3.29139 19.4185C3.8807 19.5128 4.1754 19.5607 4.46913 19.6031C8.13761 20.1325 11.8631 20.1325 15.5316 19.6031C15.8254 19.5607 16.1209 19.5129 16.7103 19.4185C16.9066 19.3871 17.0052 19.3717 17.0932 19.3521C18.2208 19.1008 19.1017 18.2201 19.3529 17.0924C19.3725 17.0043 19.3879 16.906 19.4193 16.7096C19.5136 16.1203 19.5615 15.8255 19.6039 15.5318C20.1333 11.8632 20.1333 8.13701 19.6039 4.46835C19.5615 4.17461 19.5136 3.87998 19.4193 3.29061C19.3879 3.0943 19.3725 2.99577 19.3529 2.9078C19.1017 1.7801 18.2208 0.899399 17.0932 0.648035C17.0051 0.628428 16.9067 0.612069 16.7103 0.580652C16.1209 0.486335 15.8254 0.439455 15.5316 0.397059Z" fill="black"/>
<path d="M184.031 10.4014C186.933 10.4014 189.527 10.7805 191.812 11.5381C194.108 12.2957 196.049 13.3906 197.634 14.8242C199.23 16.2578 200.448 18.0123 201.287 20.0869C202.126 22.1616 202.546 24.5104 202.546 27.1328V50.001H193.77V39.8955C193.315 41.6204 192.628 43.1766 191.707 44.5635C190.798 45.9388 189.684 47.1098 188.367 48.0771C187.05 49.0329 185.552 49.7674 183.874 50.2803C182.207 50.793 180.395 51.0498 178.438 51.0498C176.398 51.0498 174.539 50.7694 172.86 50.21C171.194 49.6622 169.766 48.8871 168.577 47.8848C167.388 46.8824 166.467 45.6759 165.814 44.2656C165.174 42.8439 164.854 41.2706 164.854 39.5459C164.854 37.751 165.209 36.1426 165.92 34.7207C166.631 33.2989 167.65 32.0922 168.979 31.1016C170.319 30.1109 171.951 29.3526 173.874 28.8281C175.797 28.292 177.965 28.0244 180.378 28.0244H193.77V27.1328C193.77 25.676 193.542 24.3706 193.088 23.2168C192.633 22.0513 191.975 21.06 191.112 20.2441C190.261 19.4283 189.224 18.8053 188 18.374C186.776 17.9428 185.395 17.7266 183.856 17.7266C182.295 17.7266 180.937 17.9073 179.783 18.2686C178.641 18.6182 177.697 19.1198 176.951 19.7725C176.205 20.4251 175.651 21.2121 175.29 22.1328C174.929 23.0534 174.748 24.0847 174.748 25.2266H165.989C165.989 22.9541 166.409 20.9029 167.248 19.0732C168.087 17.2434 169.282 15.6873 170.832 14.4053C172.394 13.1116 174.288 12.1203 176.514 11.4326C178.751 10.745 181.257 10.4014 184.031 10.4014ZM108.882 50.002H99.0918L95.1582 38.2354H73.584L69.5811 50.002H60L77.9375 0H91.1895L108.882 50.002ZM121.173 50.002H112.396V0H121.173V50.002ZM144.812 44.5117L155.511 11.4512H164.479L151.088 50.001H138.325L125.056 11.4512H134.234L144.812 44.5117ZM180.885 34.1787C178.484 34.1787 176.665 34.5805 175.43 35.3848C174.206 36.189 173.595 37.3779 173.595 38.9512C173.595 40.6062 174.265 41.8769 175.605 42.7627C176.957 43.6367 178.904 44.0742 181.444 44.0742C183.239 44.0742 184.888 43.858 186.392 43.4268C187.907 42.9839 189.207 42.3717 190.291 41.5908C191.386 40.81 192.237 39.8836 192.843 38.8115C193.46 37.7276 193.77 36.5497 193.77 35.2793V34.1787H180.885ZM76.2412 30.4033H92.5352L84.4414 6.24121L76.2412 30.4033Z" fill="black"/>
</svg>
