<svg width="14" height="14" viewBox="0 0 14 14" fill="none" xmlns="http://www.w3.org/2000/svg">
<path fill-rule="evenodd" clip-rule="evenodd" d="M9.65147 0.111117C10.6784 -0.0370382 11.7212 -0.0370396 12.7481 0.111117C12.8304 0.122983 12.9133 0.136485 13.0782 0.162875C13.1333 0.171681 13.161 0.175936 13.1856 0.181429C13.5014 0.251783 13.7481 0.498455 13.8185 0.814242C13.8239 0.838864 13.8282 0.866719 13.837 0.921664C13.8633 1.08626 13.8769 1.16868 13.8888 1.25077C14.037 2.27786 14.037 3.32133 13.8888 4.34842C13.8769 4.43066 13.8634 4.51353 13.837 4.6785C13.8282 4.73355 13.824 4.76126 13.8185 4.78592C13.7481 5.10169 13.5014 5.34838 13.1856 5.41873C13.161 5.42422 13.1332 5.42849 13.0782 5.43729C12.9133 5.46368 12.8304 5.47718 12.7481 5.48905C12.2349 5.5631 11.7176 5.59937 11.2003 5.5994V5.60037C8.10751 5.60038 5.59972 8.1072 5.59971 11.2C5.59971 11.7176 5.5625 12.2352 5.48838 12.7488C5.47651 12.8311 5.464 12.9139 5.4376 13.0789C5.42881 13.1338 5.42453 13.1617 5.41904 13.1863C5.34862 13.5018 5.10177 13.7487 4.78623 13.8191C4.7616 13.8246 4.73374 13.8289 4.67881 13.8377C4.51378 13.8641 4.43097 13.8766 4.34873 13.8885C3.32151 14.0367 2.27829 14.0367 1.25108 13.8885C1.16885 13.8766 1.08598 13.8641 0.920998 13.8377C0.866528 13.829 0.839031 13.8246 0.814552 13.8191C0.498936 13.7488 0.252244 13.5019 0.18174 13.1863C0.176252 13.1617 0.170998 13.1338 0.162209 13.0789C0.135804 12.9139 0.123297 12.8311 0.111427 12.7488C-0.036817 11.7216 -0.0368169 10.6784 0.111427 9.65116C0.123296 9.56892 0.135806 9.48609 0.162209 9.32108C0.170996 9.26616 0.176253 9.23829 0.18174 9.21366C0.252248 8.89812 0.498941 8.65213 0.814552 8.58182C0.839082 8.57637 0.866376 8.57103 0.920998 8.56229C1.08599 8.53589 1.16885 8.52337 1.25108 8.51151C1.76467 8.43739 2.28231 8.40018 2.7999 8.40018C5.89265 8.40012 8.39951 5.89235 8.39951 2.79959C8.39953 2.28212 8.43674 1.76425 8.51084 1.25077C8.52269 1.16868 8.53626 1.08626 8.5626 0.921664C8.57139 0.866717 8.57567 0.838865 8.58115 0.814242C8.65151 0.498455 8.89818 0.251783 9.21397 0.181429C9.23862 0.175938 9.26636 0.17168 9.32139 0.162875C9.48631 0.136486 9.56924 0.122983 9.65147 0.111117Z" fill="#49A3A6"/>
<path fill-rule="evenodd" clip-rule="evenodd" d="M12.7489 8.51054C11.7217 8.3623 10.6785 8.3623 9.65128 8.51054C9.56902 8.52241 9.48626 8.53588 9.3212 8.56229C9.2663 8.57108 9.2384 8.57536 9.21378 8.58085C8.89827 8.65128 8.65237 8.89814 8.58194 9.21366C8.57645 9.23832 8.57122 9.26604 8.56241 9.32108C8.53601 9.48612 8.5235 9.56891 8.51163 9.65116C8.36341 10.6783 8.36339 11.7216 8.51163 12.7488C8.52349 12.831 8.53603 12.914 8.56241 13.0789C8.57115 13.1335 8.57648 13.1608 8.58194 13.1853C8.65226 13.501 8.89822 13.7477 9.21378 13.8182C9.23839 13.8236 9.26635 13.8279 9.3212 13.8367C9.48624 13.8631 9.56903 13.8766 9.65128 13.8885C10.6785 14.0367 11.7217 14.0367 12.7489 13.8885C12.8312 13.8766 12.914 13.8631 13.079 13.8367C13.1338 13.8279 13.1618 13.8236 13.1864 13.8182C13.502 13.7476 13.748 13.501 13.8183 13.1853C13.8237 13.1608 13.8291 13.1335 13.8378 13.0789C13.8642 12.914 13.8767 12.831 13.8886 12.7488C14.0368 11.7216 14.0368 10.6783 13.8886 9.65116C13.8767 9.56891 13.8642 9.48612 13.8378 9.32108C13.829 9.26604 13.8238 9.23832 13.8183 9.21366C13.7479 8.89815 13.5019 8.6513 13.1864 8.58085C13.1618 8.57536 13.1339 8.57107 13.079 8.56229C12.914 8.53588 12.8312 8.52241 12.7489 8.51054ZM4.34855 0.111121C3.32161 -0.0370389 2.2788 -0.037042 1.25187 0.111121C1.16963 0.122989 1.08675 0.136485 0.921787 0.162879C0.866742 0.171686 0.839023 0.175941 0.814365 0.181434C0.498606 0.251803 0.251903 0.498476 0.181553 0.814246C0.17611 0.83875 0.171719 0.866191 0.162998 0.920692C0.136606 1.08564 0.123105 1.16857 0.11124 1.25077C-0.0369949 2.27793 -0.0369768 3.32126 0.11124 4.34843C0.123111 4.43068 0.13659 4.51345 0.162998 4.6785C0.171796 4.73349 0.176063 4.76128 0.181553 4.78593C0.251979 5.10159 0.498663 5.3484 0.814365 5.41874C0.839002 5.42422 0.866803 5.4285 0.921787 5.43729C1.08669 5.46368 1.16965 5.47719 1.25187 5.48905C2.27874 5.6372 3.32167 5.63719 4.34855 5.48905C4.43076 5.47719 4.51375 5.46367 4.67862 5.43729C4.73358 5.4285 4.76142 5.42422 4.78605 5.41874C5.10175 5.3484 5.34843 5.10159 5.41886 4.78593C5.42435 4.76128 5.42861 4.73349 5.43741 4.6785C5.46382 4.51345 5.4773 4.43068 5.48917 4.34843C5.63739 3.32126 5.63741 2.27794 5.48917 1.25077C5.47731 1.16857 5.4638 1.08564 5.43741 0.920692C5.42869 0.86619 5.4243 0.838751 5.41886 0.814246C5.34851 0.498466 5.10182 0.251794 4.78605 0.181434C4.76139 0.175941 4.73367 0.171686 4.67862 0.162879C4.51368 0.136488 4.43077 0.122988 4.34855 0.111121Z" fill="white"/>
</svg>
